<?xml version="1.0" encoding="utf-8"?>
<!-- Generator: Adobe Illustrator 21.0.0, SVG Export Plug-In . SVG Version: 6.00 Build 0)  -->
<svg version="1.1" id="Layer_1" xmlns="http://www.w3.org/2000/svg" xmlns:xlink="http://www.w3.org/1999/xlink" x="0px" y="0px"
	 viewBox="0 0 500 174" style="enable-background:new 0 0 500 174;" xml:space="preserve">
<style type="text/css">
	.st0{fill:#FFFFFF;}
	.st1{fill:url(#SVGID_1_);}
	.st2{fill:url(#SVGID_2_);}
	.st3{fill:url(#SVGID_3_);}
	.st4{fill:url(#SVGID_4_);}
</style>
<g>
	<path class="st0" d="M126.2,40.2c13.1,0,24.2,4.4,33.1,13.1c9,8.7,13.4,19.3,13.4,31.7c0,11-3.5,20.7-10.4,29.1
		c-8.8,10.9-20.8,16.3-36,16.3c-3.3,0-6.4-0.3-9.4-0.8L89.5,147c0.1,0.1,0.2,0.1,0.3,0.2c11,6.3,23.1,9.5,36.2,9.5
		c19.6,0,36.5-6.8,50.7-20.4c14.2-13.6,21.4-30.7,21.4-51.3c0-19.7-6.9-36.4-20.8-50.2C163.4,20.9,146.4,14,126.4,14
		c-13.5,0-25.6,3.1-36.4,9.4l25.6,17.8C119,40.6,122.5,40.2,126.2,40.2z"/>
	<path class="st0" d="M302.9,36.5c-4.5-6.2-11-10.8-19.5-13.9c-4-1.4-8.5-2.5-13.3-3.2c-4.7-0.7-9.9-1-15.4-1h-39.9v137.4h23.9V103
		c13,0.8,24.7,0,34.5-2.4c7.5-1.8,14.1-4.6,19.4-8.2c5.5-3.7,9.8-8.4,12.7-14c2.9-5.6,4.4-12,4.4-19.2
		C309.7,50.3,307.4,42.7,302.9,36.5z M238.8,40.7H253c4.6,0,8.7,0.2,12.1,0.6c3.3,0.4,6.2,1,8.6,1.9c3.7,1.4,6.5,3.4,8.5,6
		c1.9,2.5,2.8,5.8,2.8,9.9c0,3.4-0.6,6.5-1.8,9.2c-1.2,2.5-3.1,4.7-5.7,6.5c-2.8,1.9-6.7,3.4-11.4,4.5c-4.9,1.1-11,1.6-18.1,1.6
		c-2,0-4.1-0.1-6.3-0.2c-1-0.1-1.9-0.1-2.8-0.2V40.7z"/>
	<rect x="328.8" y="18.4" class="st0" width="23.9" height="137.4"/>
	<path class="st0" d="M467.9,18.4v72.8c0,8.2,0.2,16.4,0.5,24.5c-5.3-8-10.6-15.9-15.9-23.5l-51.9-73.8h-21.8v137.4h23.9v-70
		c0-9.8-0.2-18.9-0.5-27.2C407,66,412.4,73.9,418,82l51.9,73.8h21.9V18.4H467.9z"/>
	<linearGradient id="SVGID_1_" gradientUnits="userSpaceOnUse" x1="20.6963" y1="33.324" x2="102.5215" y2="33.324">
		<stop  offset="0" style="stop-color:#BA3B95"/>
		<stop  offset="1" style="stop-color:#7B3493"/>
	</linearGradient>
	<path class="st1" d="M37.3,9.2c-9.2,0-16.6,7.4-16.6,16.6c0,9.2,7.4,16.6,16.6,16.6C46.5,42.4,54,35,54,25.8
		C54,16.6,46.5,9.2,37.3,9.2z M68.7,24.8c-7.3,0-13.3,5.9-13.3,13.3c0,7.3,5.9,13.3,13.3,13.3C76,51.3,82,45.4,82,38.1
		C82,30.8,76,24.8,68.7,24.8z M92.8,38.1c-5.4,0-9.7,4.3-9.7,9.7s4.3,9.7,9.7,9.7c5.4,0,9.7-4.3,9.7-9.7S98.2,38.1,92.8,38.1z"/>
	<linearGradient id="SVGID_2_" gradientUnits="userSpaceOnUse" x1="20.6963" y1="138.8352" x2="102.5215" y2="138.8352">
		<stop  offset="0" style="stop-color:#0099D9"/>
		<stop  offset="1" style="stop-color:#005791"/>
	</linearGradient>
	<path class="st2" d="M37.3,129.7c-9.2,0-16.6,7.4-16.6,16.6c0,9.2,7.4,16.6,16.6,16.6c9.2,0,16.6-7.4,16.6-16.6
		C54,137.2,46.5,129.7,37.3,129.7z M68.7,120.8c-7.3,0-13.3,5.9-13.3,13.3c0,7.3,5.9,13.3,13.3,13.3c7.3,0,13.3-5.9,13.3-13.3
		C82,126.8,76,120.8,68.7,120.8z M92.8,114.7c-5.4,0-9.7,4.3-9.7,9.7c0,5.4,4.3,9.7,9.7,9.7c5.4,0,9.7-4.3,9.7-9.7
		C102.5,119,98.2,114.7,92.8,114.7z"/>
	<linearGradient id="SVGID_3_" gradientUnits="userSpaceOnUse" x1="13.4102" y1="104.6538" x2="87.8523" y2="104.6538">
		<stop  offset="0" style="stop-color:#8DC63F"/>
		<stop  offset="0.396" style="stop-color:#71B143"/>
		<stop  offset="0.7491" style="stop-color:#5FA545"/>
		<stop  offset="1" style="stop-color:#58A145"/>
	</linearGradient>
	<path class="st3" d="M26.8,91.3c-7.4,0-13.4,6-13.4,13.4c0,7.4,6,13.4,13.4,13.4c7.4,0,13.4-6,13.4-13.4
		C40.2,97.3,34.2,91.3,26.8,91.3z M56.8,91.3c-5.9,0-10.7,4.8-10.7,10.7c0,5.9,4.8,10.7,10.7,10.7c5.9,0,10.7-4.8,10.7-10.7
		C67.4,96.1,62.7,91.3,56.8,91.3z M80,91.3c-4.3,0-7.8,3.5-7.8,7.8c0,4.3,3.5,7.8,7.8,7.8c4.3,0,7.8-3.5,7.8-7.8
		C87.9,94.8,84.4,91.3,80,91.3z"/>
	<linearGradient id="SVGID_4_" gradientUnits="userSpaceOnUse" x1="13.4102" y1="66.5613" x2="87.8523" y2="66.5613">
		<stop  offset="0" style="stop-color:#FFCE06"/>
		<stop  offset="1" style="stop-color:#FAA21B"/>
	</linearGradient>
	<path class="st4" d="M26.8,53.2c-7.4,0-13.4,6-13.4,13.4c0,7.4,6,13.4,13.4,13.4c7.4,0,13.4-6,13.4-13.4
		C40.2,59.2,34.2,53.2,26.8,53.2z M56.8,58.6c-5.9,0-10.7,4.8-10.7,10.7c0,5.9,4.8,10.7,10.7,10.7c5.9,0,10.7-4.8,10.7-10.7
		C67.4,63.4,62.7,58.6,56.8,58.6z M80,64.3c-4.3,0-7.8,3.5-7.8,7.8c0,4.3,3.5,7.8,7.8,7.8c4.3,0,7.8-3.5,7.8-7.8
		C87.9,67.8,84.4,64.3,80,64.3z"/>
</g>
</svg>
